<svg width="41" height="63" viewBox="0 0 41 63" fill="none" xmlns="http://www.w3.org/2000/svg">
<g clip-path="url(#clip0_180_3102)">
<path d="M8.41431 15.7149C8.33203 15.8061 8.31717 15.8161 8.21549 15.8739L8.14269 16.0459L8.15138 16.0101L8.11877 16.0108C8.11563 15.9124 8.10966 15.8047 8.11336 15.7074C8.17679 15.4689 8.03723 15.0526 8.03356 14.8115C8.02905 14.5149 8.06453 14.1908 8.0622 13.8919C8.05972 13.5695 8.03931 13.2416 8.02374 12.9189C7.98385 12.0929 8.09881 11.3184 8.09066 10.4927L8.07876 6.74369L8.06336 5.12497C8.05456 4.26418 7.99143 4.01578 8.34169 3.25098C8.53562 2.82746 8.39432 2.36782 9.01429 2.21232C9.43099 2.10807 9.74337 2.18204 10.16 2.14695C10.4334 2.12287 10.7187 2.08743 10.9937 2.07092C11.2327 2.16278 11.1658 2.28353 11.4559 2.29695C12.3377 2.33789 13.2109 2.39775 14.093 2.34649C14.2416 2.33789 14.4677 2.47757 14.6114 2.47964C14.8325 2.48308 15.0796 2.38468 15.3029 2.43457L15.3203 2.4731C15.0631 2.76554 14.736 2.52436 14.3894 2.91898C13.3483 2.86634 12.7199 3.01187 11.5748 2.7848C11.3078 3.00396 10.9277 3.08206 10.6018 3.12368C10.4875 3.13848 10.4456 3.08274 10.3491 3.016C10.198 2.9988 9.51468 3.52897 9.37108 3.65626C8.75586 5.35892 8.85172 7.55288 8.73909 9.39454C8.72003 9.83698 8.608 10.3035 8.62554 10.7477C8.67375 11.9676 8.83931 13.1969 8.80154 14.4217C8.78945 14.8135 8.58216 15.3736 8.41431 15.7149Z" fill="#A33839"></path>
<path d="M34.6302 19.3498C34.6228 19.7345 34.6395 20.1766 34.6192 20.5498C34.5872 21.1381 34.5704 21.4199 34.6637 22.0007C34.7268 22.3936 34.679 22.9605 34.7206 23.3689C34.7318 23.9593 34.6585 24.5624 34.7049 25.1562C34.8322 26.7863 34.9261 28.3888 34.9375 30.0275C34.9287 30.3192 34.8425 30.6091 34.8256 30.8988C34.8045 31.2587 34.8484 31.6406 34.7777 31.9937C34.7348 32.2074 34.4697 32.4966 34.3114 32.6086C33.9771 32.573 34.0918 31.4496 34.0958 31.1723C34.0996 30.9025 34.1009 30.6674 34.087 30.3947C34.0527 29.7218 33.8733 29.0827 33.8845 28.4049C33.8772 27.8171 33.9317 27.2573 33.967 26.6927C34.0062 26.0432 34.0307 25.3922 34.0407 24.741C34.0537 23.6706 33.9394 22.6196 34.0163 21.5452C34.0433 21.1681 33.988 20.7535 34.0522 20.3716C34.0671 20.2323 34.1706 19.4616 34.2215 19.3601L34.2667 19.3643L34.2755 19.2834C34.4257 19.3316 34.4736 19.3378 34.6302 19.3498Z" fill="#A33839"></path>
<path d="M34.2461 14.2135C34.1956 13.5918 34.1722 12.9553 34.0331 12.333C34.038 12.0619 34.2037 11.7681 34.2135 11.5049C34.2244 11.2124 34.0871 10.8856 34.0982 10.6107C34.1177 10.1308 34.2385 9.68625 34.2381 9.19874C34.2377 8.81961 34.2945 8.43359 34.2756 8.05274C34.2575 7.7259 34.2029 7.38736 34.1782 7.05914C34.1669 6.91017 34.2675 6.57542 34.2585 6.46017C34.2206 5.97679 34.1707 5.45591 34.12 4.97597C33.4527 4.04155 34.2062 3.56781 32.6673 3.86093C32.5032 3.89189 31.5512 3.7326 31.4498 3.59361C31.5033 3.36585 31.5286 3.26195 31.5472 3.02525C32.3695 3.00667 33.5523 2.94096 34.3472 3.11849C34.3936 3.12881 34.8738 4.7926 34.8663 4.94948C34.8323 5.66234 34.9094 6.67485 34.8815 7.39252C34.8694 7.70182 34.6788 8.19621 34.6212 8.50309L34.8124 8.78899C34.8088 9.23693 34.7684 9.85896 34.8113 10.2918C34.8745 10.9276 35.1509 11.4825 34.9234 12.1548C34.8065 12.5184 34.946 13.0025 34.8525 13.3427C34.8228 13.4508 34.6345 14.0951 34.5976 14.1698L34.5899 14.1636C34.4884 14.1849 34.3511 14.1991 34.2461 14.2135Z" fill="#A33839"></path>
<path d="M30.5296 3.47541C30.1614 3.54972 29.9971 3.65328 29.6507 3.77129C29.5373 3.80982 29.2314 3.68906 29.1091 3.78814L29.0945 3.93712L29.0698 3.95294C29.0503 3.91647 28.9585 3.74996 28.9291 3.72519C28.5991 3.44858 27.7086 3.47885 27.3129 3.505C27.0885 3.52014 26.9282 3.59686 26.6672 3.60821C26.1309 3.66807 25.5934 3.67633 25.052 3.68769C24.2774 3.7042 23.5043 3.612 22.7271 3.6784C22.53 3.69525 22.2663 3.62404 22.0647 3.62438C21.7242 3.59101 21.3813 3.61062 21.0417 3.56589C20.7532 3.53183 20.5323 3.21291 20.2487 3.17334C20.0304 3.14307 19.7733 3.11727 19.5545 3.10763C19.1292 3.08905 19.1764 2.91738 18.948 2.59983L18.961 2.54581C19.1645 2.43984 20.4079 2.71473 20.7529 2.70992C21.2709 2.70235 21.7708 2.60086 22.2908 2.61634C22.592 2.62528 22.8605 2.71198 23.176 2.71026C23.5539 2.7082 24.2044 2.58675 24.5422 2.67689C24.6261 2.68412 24.7876 2.65797 24.8871 2.65281C25.1972 2.63698 25.4023 2.66623 25.7007 2.74501C26.0521 2.84134 26.5615 2.80247 26.7342 2.98618C26.9485 3.06531 27.1343 2.95488 27.3429 2.9621C28.1377 2.98997 28.931 3.04914 29.7265 3.04708C30.071 3.04605 30.4365 3.02747 30.7744 3.10144C30.9236 3.13378 31.0705 3.3722 31.179 3.4964C31.2594 3.52117 31.282 3.52564 31.3516 3.57725L31.3454 3.60477C31.1218 3.7245 30.7492 3.56693 30.5296 3.47541Z" fill="#A33839"></path>
<path d="M25.7031 2.74412C25.4787 2.74687 25.2927 2.88243 25.0695 2.95949C25.0301 2.97291 25.0319 3.11224 24.9105 3.1814C24.7324 3.06477 24.8191 2.84424 24.5768 2.84871C24.5552 2.7744 24.5519 2.75375 24.5446 2.676C24.6284 2.68323 24.79 2.65708 24.8894 2.65192C25.1995 2.63609 25.4047 2.66533 25.7031 2.74412Z" fill="#A33839"></path>
<path d="M22.9845 61.0335C23.245 61.0678 23.4382 61.159 23.6184 61.3957C23.7407 61.5563 23.7011 61.6957 23.7832 61.8823C23.7493 61.9362 23.745 61.9417 23.6828 61.9447C23.3482 61.961 23.0242 61.9254 22.6882 61.9661C22.0427 62.0444 21.3912 61.8992 20.7437 61.9364C20.0686 61.9758 19.3993 61.9318 18.7248 61.9129C18.2452 61.9044 17.7406 62.0605 17.2574 62.0323C17.0666 62.0248 16.6369 62.0095 16.4912 61.8603C16.2565 61.6202 16.4675 60.8881 16.8068 60.8943C16.9888 60.8977 17.1468 61.1141 17.3421 61.0836C17.6783 61.0799 18.112 60.9389 18.4197 60.7926C18.4442 60.784 18.4691 60.7769 18.4943 60.7716C18.672 60.7319 18.8343 60.8981 18.9851 61.0158C19.344 61.2519 19.3613 61.2814 19.7583 61.2676C19.8217 61.3012 19.9535 61.3975 20.0193 61.4426C20.2182 61.3227 20.0714 61.152 20.0383 60.9154C20.1295 60.8566 20.2702 60.7522 20.3679 60.7376C20.3571 60.9459 20.3101 61.1395 20.5047 61.2052L20.5285 61.1941C20.638 61.1186 20.7227 61.104 20.7426 60.9549C20.7672 60.9353 20.8108 60.8984 20.8423 60.9082C21.1266 60.9971 21.3662 61.0785 21.6564 61.1357C22.4297 60.5077 22.0189 61.2404 22.6528 61.0601C22.7985 61.0187 22.8213 61.0158 22.9845 61.0335Z" fill="#A33839"></path>
<path d="M22.9863 61.0332C22.8466 61.1739 22.5982 61.3399 22.4187 61.451C22.166 61.6074 22.0719 61.3007 21.9139 61.2514C21.4901 61.1189 21.3045 61.1897 20.8633 60.9774L20.848 60.9698C20.7876 61.0369 20.806 61.007 20.7899 61.1176C20.8035 61.1125 20.8171 61.1075 20.8307 61.1025C20.9022 61.0897 20.9751 61.1115 21.0322 61.1627C20.9414 61.2472 20.6419 61.2323 20.5304 61.1939C20.6398 61.1184 20.7246 61.1037 20.7444 60.9546C20.769 60.935 20.8127 60.8981 20.8441 60.9079C21.1284 60.9968 21.3681 61.0782 21.6582 61.1354C22.4316 60.5074 22.0207 61.2402 22.6547 61.0599C22.8003 61.0185 22.8231 61.0156 22.9863 61.0332Z" fill="#A33839"></path>
<path d="M20.5078 61.2054C20.3451 61.3002 20.2174 61.4746 20.0224 61.4428C20.2213 61.3228 20.0745 61.1522 20.0414 60.9156C20.1326 60.8567 20.2733 60.7524 20.3709 60.7377C20.3602 60.946 20.3132 61.1396 20.5078 61.2054Z" fill="#A33839"></path>
<path d="M18.9883 61.0146C18.6537 61.0668 18.6263 61.116 18.4229 60.7915C18.4474 60.7828 18.4723 60.7758 18.4975 60.7705C18.6752 60.7308 18.8375 60.8969 18.9883 61.0146Z" fill="#A33839"></path>
<path d="M8.3939 21.9296C8.26493 21.4304 8.08893 21.0389 8.0548 20.5087C8.00104 19.6744 8.12101 18.7373 8.13231 17.8988C8.1407 17.2778 8.0119 16.329 8.11331 15.709C8.10961 15.8064 8.11558 15.9141 8.11871 16.0124L8.15132 16.0118L8.14264 16.0475L8.21543 15.8755C8.31711 15.8177 8.33197 15.8077 8.41425 15.7166C8.39895 15.7696 8.36437 15.9003 8.37499 15.9491C8.54821 16.7446 8.58983 17.5513 8.68405 18.3612C8.70192 18.5147 8.55445 18.8449 8.53323 19.0032C8.50769 19.2365 8.51641 19.5017 8.52506 19.7388C8.53556 20.0257 8.50009 20.325 8.50737 20.6054C8.52127 21.139 8.5429 21.4084 8.3939 21.9296Z" fill="#A33839"></path>
<path d="M34.5901 18.2938C34.4861 18.2113 34.3584 18.2137 34.2314 18.2013C34.2349 18.0458 34.2343 17.8762 34.2557 17.7241C34.2515 17.3659 34.2362 16.9889 34.2591 16.6321C34.2708 16.4518 34.4075 16.0084 34.3951 15.8666C34.3483 15.3327 34.2538 15.0316 34.2612 14.465L34.2459 14.2145C34.351 14.2001 34.4883 14.186 34.5897 14.1646L34.5975 14.1708C34.5899 14.3181 34.5956 14.3456 34.6244 14.4901C34.7295 14.7729 34.6503 17.1193 34.5909 17.4981C34.5998 17.7833 34.6079 18.0096 34.5901 18.2938Z" fill="#A33839"></path>
<path d="M34.5929 18.2938C34.4889 18.2113 34.3612 18.2137 34.2342 18.2013C34.2377 18.0458 34.2371 17.8762 34.2585 17.7241C34.343 17.7633 34.4029 17.8025 34.492 17.7929C34.5773 17.6904 34.5604 17.6584 34.5937 17.4981C34.6026 17.7833 34.6108 18.0096 34.5929 18.2938Z" fill="#A33839"></path>
<path d="M34.623 14.4903C34.475 14.5047 34.4005 14.5199 34.2599 14.4652L34.2446 14.2147C34.3497 14.2002 34.487 14.1861 34.5884 14.1648L34.5962 14.171C34.5886 14.3182 34.5943 14.3458 34.623 14.4903Z" fill="#A33839"></path>
<path d="M34.6328 19.3488C34.4762 19.3368 34.4283 19.3306 34.2781 19.2824L34.2693 19.3633L34.2241 19.3592C34.2752 18.8913 34.2113 18.6205 34.2335 18.2015C34.3605 18.2138 34.4883 18.2114 34.5922 18.294L34.6328 19.3488Z" fill="#A33839"></path>
<path d="M9.70879 36.2716C9.51242 36.1924 9.21243 36.1094 9.28239 35.8065C9.39723 35.646 9.7198 35.5143 9.87109 35.6316C9.84257 35.8534 9.76202 35.7381 9.75148 36.0191C9.74331 36.0365 9.72275 36.2177 9.70879 36.2716Z" fill="#A33839"></path>
<path d="M20.0228 61.442C19.957 61.3969 19.8251 61.3005 19.7617 61.267C19.8508 61.0839 19.8713 60.9981 20.0418 60.9148C20.0749 61.1514 20.2217 61.322 20.0228 61.442Z" fill="#A33839"></path>
<path d="M9.75318 36.0185C9.83445 35.9892 9.88476 35.9307 9.95153 35.8679C10.029 35.876 9.99971 35.8599 10.0566 35.9331C10.0781 36.1849 9.92035 36.3393 9.71049 36.271C9.72445 36.2171 9.74501 36.0358 9.75318 36.0185Z" fill="#A33839"></path>
<path d="M20.5063 61.2051C20.3117 61.1394 20.3587 60.9458 20.3694 60.7375C20.4611 60.7976 20.5798 60.898 20.6661 60.9698L20.7441 60.9548C20.7243 61.1039 20.6396 61.1185 20.5301 61.194L20.5063 61.2051Z" fill="#A33839"></path>
<path d="M13.3423 62.1588L9.00205 62.1588C8.60617 61.8562 8.48609 61.5881 8.23103 61.1382C8.07416 60.8614 7.9297 60.5995 7.86471 60.2723C7.7824 59.9234 7.98814 59.637 7.98942 59.3358C7.99238 58.6592 7.98379 58.0292 8.04555 57.3528C8.10205 56.7339 7.99101 56.0486 8.01592 55.4213C8.02257 55.0458 8.07144 54.6864 8.07034 54.3097C8.06947 54.0169 7.96099 53.6134 7.96902 53.3424C7.98698 52.7357 7.89461 52.0853 7.89476 51.4986C7.89497 50.5879 7.96812 49.6737 7.97299 48.7624C7.97138 48.2312 8.14496 47.743 8.16778 47.2124C8.18034 46.9197 8.0965 46.5963 8.0988 46.316C8.10337 45.767 8.03847 45.2164 8.01117 44.6794C8.00043 44.4683 8.2011 43.9768 8.24589 43.7363C7.88205 43.0333 8.01037 42.9702 8.0954 42.1994C8.11041 42.0635 8.0985 41.7786 8.11449 41.5933C8.17431 41.5586 8.31069 41.4742 8.36669 41.451L8.44023 41.3207C8.51398 41.432 8.60582 41.4929 8.68374 41.6552C8.878 42.0598 8.76591 42.5351 8.66602 42.9534C8.6972 43.2047 8.78608 43.1723 8.83346 43.2878C8.97425 43.7139 9.07682 44.6289 8.9982 45.0734C8.92192 45.5046 8.83199 45.8876 8.7697 46.34C8.63323 47.3308 8.8771 48.2066 8.83316 49.1879C8.73751 51.323 8.52878 53.4436 8.43859 55.5796C8.43054 55.7166 8.54826 56.0219 8.53713 56.1392C8.46404 56.9075 8.5622 57.4969 8.69069 58.233C8.72345 58.4208 8.69195 58.9795 8.7105 59.2244C8.76167 59.8996 8.59075 60.1871 8.96494 60.7916C9.77063 60.9724 10.6657 60.6787 11.4343 61.0376C11.552 61.0926 11.7345 61.1357 11.8615 61.1715C12.3011 61.014 12.5958 61.0901 13.0473 61.0922C13.7219 61.0954 14.3936 61.0882 15.0676 61.1292C15.2572 61.1792 15.9818 61.2467 16.0092 61.4638C16.0775 62.0061 15.7153 61.7144 15.4509 61.7957C15.0874 61.8774 13.5973 61.9113 13.3423 62.1588Z" fill="#A33839"></path>
<path d="M15.0676 61.1308C15.2572 61.1807 15.9818 61.2483 16.0092 61.4653C16.0775 62.0076 15.7153 61.716 15.4509 61.7972C15.4963 61.3102 15.3985 61.3685 15.0676 61.1308Z" fill="#A33839"></path>
<path d="M8.4391 41.3214C8.51285 41.4328 8.60469 41.4936 8.68261 41.656C8.87687 42.0606 8.76478 42.5358 8.66489 42.9541C8.6518 42.8194 8.61346 42.6387 8.60567 42.5489C8.57062 42.1447 8.63759 41.911 8.48738 41.5191C8.44349 41.4881 8.4164 41.4638 8.36556 41.4518L8.4391 41.3214Z" fill="#A33839"></path>
<path d="M32.6551 62.1588L31.9103 62.1588C31.4042 61.7693 30.4402 61.9841 29.8525 61.976C29.5677 61.9721 29.2837 61.9231 28.9988 61.9189C28.0185 61.9718 27.0951 61.9035 26.1145 61.985C25.6652 62.0224 25.3433 61.8866 24.8202 61.955C24.6527 61.9136 24.6042 61.8777 24.4588 61.7841C24.3425 61.8122 24.0126 61.908 23.9204 61.8376C24.0354 61.7061 24.6732 61.4316 24.8613 61.412C24.8692 61.3024 24.8655 61.2126 24.9286 61.1296C25.269 60.8994 26.1803 61.3937 26.5849 61.3722C26.8009 61.3608 27.0247 61.3483 27.2419 61.3335C28.0991 61.3516 28.9407 61.311 29.7917 61.1944C29.9684 61.1702 30.1801 61.2599 30.3604 61.2239C30.6069 61.1776 30.7298 60.8282 30.9838 60.7987C31.2302 60.7702 31.4932 60.8763 31.7413 60.901C33.499 61.0758 33.6972 59.5441 33.7604 57.9487C33.7776 57.1539 33.878 56.3607 33.874 55.5677C33.8707 54.9113 33.7855 54.27 33.8122 53.6096C33.8361 53.0174 33.9306 52.428 33.9428 51.8365C33.9449 51.736 33.9253 51.6185 33.9247 51.5168C33.8886 51.0231 33.8761 50.5224 33.8474 50.0284C33.8157 49.4828 33.5474 48.5029 33.8036 48.0205C33.894 47.8064 33.9022 47.61 33.8548 47.3748C34.0471 47.3332 34.2769 47.4325 34.4451 47.5348C34.3529 47.7177 34.382 47.7705 34.4602 47.9509C34.7777 48.0596 34.7081 49.3802 34.7208 49.6854C34.7333 49.986 34.7577 50.3122 34.7671 50.6144C34.777 50.9329 34.6295 51.2979 34.6081 51.6166C34.6211 52.4797 34.5718 53.3324 34.5531 54.1946C34.5442 54.495 34.692 54.806 34.6967 55.1029C34.7092 55.8901 34.5954 56.6718 34.5645 57.4531C34.5498 58.2211 34.5381 58.9885 34.5497 59.7572C34.5588 60.3561 34.5264 60.7171 34.1958 61.198C33.9655 61.533 33.6536 61.8107 33.3054 61.9626C33.1211 62.0429 32.8042 62.0391 32.6551 62.1588Z" fill="#A33839"></path>
<path d="M34.4609 47.9529C34.2089 47.8744 34.0712 48.0138 33.8043 48.0225C33.8946 47.8084 33.9029 47.612 33.8555 47.3768C34.0478 47.3352 34.2776 47.4345 34.4458 47.5368C34.3536 47.7197 34.3827 47.7724 34.4609 47.9529Z" fill="#A33839"></path>
<path d="M24.8177 61.9568C24.6502 61.9154 24.6017 61.8795 24.4562 61.7859C24.34 61.814 24.0101 61.9098 23.9179 61.8394C24.0328 61.7079 24.6707 61.4334 24.8587 61.4138C24.8671 61.4537 24.8629 61.4447 24.8549 61.4894C24.8343 61.4974 24.8138 61.5059 24.7935 61.5147C24.6888 61.56 24.6314 61.5951 24.5871 61.7083C24.6741 61.9059 24.6487 61.6943 24.8177 61.9568Z" fill="#A33839"></path>
<path d="M34.4434 47.5376C34.2752 47.4353 34.0455 47.336 33.8532 47.3776C33.6428 47.0826 33.6053 47.0022 33.306 46.8263C33.4011 46.5451 33.5772 46.3698 33.594 46.1784C33.4005 46.2041 33.5144 46.3246 33.3644 46.3121C33.2012 46.007 33.5437 45.61 33.3808 45.0653C33.3641 45.0547 33.3461 45.0162 33.3339 44.995C33.3054 44.6885 33.5742 44.2931 33.6444 44.0041C33.6811 43.8527 33.677 43.5755 33.7008 43.4143C33.7859 42.8379 33.798 42.0884 34.0893 41.6104C33.549 40.0944 33.8298 39.1485 33.8983 37.5747C33.9218 37.0367 33.8242 36.3962 33.8203 35.8463C33.8096 35.1944 33.8269 34.7934 33.8717 34.1232C33.8815 33.9775 33.7847 32.8335 34.4255 33.1834C34.6326 33.3984 34.5402 34.0508 34.5991 34.2613C34.7006 34.6234 34.7595 34.63 34.7724 34.9918C34.8089 36.0199 34.5003 37.0218 34.6042 38.0448C34.6322 38.3215 34.6467 38.644 34.6495 38.921L34.6779 43.6016C34.6899 44.6098 34.4991 45.5784 34.6339 46.6C34.6824 46.9683 34.6611 47.2494 34.4434 47.5376Z" fill="#A33839"></path>
<path d="M33.5937 46.1777C33.4003 46.2034 33.5141 46.3239 33.3641 46.3113C33.2009 46.0063 33.5434 45.6093 33.3805 45.0645C33.7163 45.2443 33.7067 45.8344 33.6294 46.1953L33.5937 46.1777Z" fill="#A33839"></path>
<path d="M8.64962 39.4971C8.63512 39.3478 8.63981 39.068 8.52629 38.9842C7.98341 38.1701 8.2453 37.75 8.21442 36.8701C8.18444 36.0151 8.10505 35.1172 8.12924 34.247C8.1373 33.9571 7.83331 33.5572 7.88385 33.226C7.88597 31.9852 8.07554 30.8485 8.02572 29.602C8.1993 29.6354 8.25813 29.6569 8.42327 29.7238C8.49759 30.2638 8.42804 30.7524 8.46486 31.2715C8.54893 32.4578 8.53052 33.6514 8.57331 34.836C8.58933 35.2792 8.62823 35.6575 8.63068 36.1114C8.6342 36.7605 8.52423 37.3541 8.50985 37.9822C8.78913 38.1385 8.79504 38.5348 8.67832 38.8231C8.65344 38.9111 8.65177 39.3766 8.64962 39.4971Z" fill="#A33839"></path>
<path d="M8.67832 38.8224C8.65884 38.7955 8.62949 38.7495 8.60893 38.7273C8.52614 38.6379 8.46712 38.0867 8.50985 37.9815C8.78913 38.1377 8.79504 38.534 8.67832 38.8224Z" fill="#A33839"></path>
<path d="M8.42404 29.7241C8.2589 29.6571 8.20007 29.6356 8.02649 29.6022C8.02368 29.4897 8.02389 29.3272 8.01491 29.2194C7.99069 28.7012 7.92442 28.1629 7.95035 27.6506C7.97273 27.2078 8.0955 26.6508 8.09678 26.2162C8.10012 25.0592 7.81174 24.6718 8.09872 23.4797C8.21442 23.4126 8.34325 23.3879 8.46996 23.3559C8.53849 23.6001 8.48177 23.6803 8.50379 23.8957C8.58291 24.6694 8.37997 25.9771 8.53511 26.6532C8.73841 27.5391 8.54633 28.261 8.45262 29.1058C8.43872 29.3116 8.4292 29.5177 8.42404 29.7241Z" fill="#A33839"></path>
<path d="M8.42454 29.7241C8.25941 29.6571 8.20057 29.6356 8.02699 29.6022C8.02419 29.4897 8.0244 29.3272 8.01542 29.2194L8.02696 29.2408C8.0659 29.3141 8.07449 29.3229 8.08812 29.4045L8.13314 29.4344L8.12318 29.4168C8.23772 29.4055 8.32128 29.2314 8.45313 29.1058C8.43922 29.3116 8.4297 29.5177 8.42454 29.7241Z" fill="#A33839"></path>
<path d="M8.36718 41.4521C8.31117 41.4753 8.1748 41.5597 8.11498 41.5944C8.13712 41.3558 8.22847 40.9726 8.22943 40.8168C8.23014 40.7824 8.23062 40.6552 8.23668 40.6302L8.27749 40.6846C8.44755 40.5765 8.29539 40.2229 8.63867 40.2415C8.61979 40.606 8.54723 40.9353 8.44191 41.2775L8.44072 41.3218L8.36718 41.4521Z" fill="#A33839"></path>
<path d="M8.36276 41.4521C8.30676 41.4753 8.17039 41.5597 8.11057 41.5944C8.13271 41.3558 8.22406 40.9726 8.22502 40.8168C8.24402 41.0793 8.2473 41.1189 8.4375 41.2775L8.43631 41.3218L8.36276 41.4521Z" fill="#A33839"></path>
<path d="M8.63867 40.2432C8.29539 40.2245 8.44755 40.5781 8.27749 40.6862L8.23668 40.6318C8.25183 40.1679 8.2382 39.4977 8.36368 39.0807L8.39349 39.2151L8.50812 39.287C8.66039 39.5289 8.46969 39.7228 8.47589 40.0746C8.52584 40.1681 8.49711 40.1427 8.58115 40.1757L8.63282 39.9499L8.63867 40.2432Z" fill="#A33839"></path>
<path d="M8.4707 23.3562C8.34399 23.3882 8.21517 23.413 8.09947 23.48C8.1154 22.9805 8.13512 22.5866 8.37147 22.1675C8.45802 22.5989 8.38541 23.0476 8.4707 23.3562Z" fill="#A33839"></path>
<path d="M8.63317 39.948L8.5815 40.1738C8.49745 40.1407 8.52619 40.1662 8.47624 40.0727C8.47004 39.7209 8.66074 39.527 8.50846 39.285L8.39384 39.2132L8.36403 39.0787L8.53096 38.9827C8.64448 39.0665 8.6398 39.3462 8.6543 39.4955C8.64072 39.5674 8.63607 39.8586 8.63317 39.948Z" fill="#A33839"></path>
</g>
<path d="M18.9908 15.7053C19.0168 15.6954 19.043 15.6862 19.0694 15.6774C19.2497 15.6182 20.1549 15.4184 20.2932 15.4877C20.2458 15.5369 20.2102 15.565 20.158 15.6069L20.1712 15.6385C20.8941 15.7639 21.5637 15.4823 22.2474 15.3176C22.6847 15.2123 23.0628 15.2895 23.4752 15.2219C24.2652 15.0924 25.0178 14.7713 25.821 14.6784C25.9696 14.6612 26.1385 14.6196 26.2921 14.6596C26.537 14.9234 26.6088 14.606 26.7307 14.5924C27.2172 14.538 27.9761 14.1846 28.4332 14.2091C28.9679 14.2378 29.4411 14.7822 29.7869 15.1258C30.1233 15.46 30.4544 15.7916 30.6005 16.2548C30.7054 16.545 30.6362 16.7017 30.6916 16.9297L30.7169 17.0315L30.6809 17.0869C30.3328 17.3219 27.5571 17.0018 27.0016 17.018C24.8935 17.0794 22.8112 17.0919 20.7157 17.3707C20.3057 17.4252 19.8489 17.4005 19.4332 17.4322C19.0366 17.4626 18.7909 17.6646 18.4542 17.8403C18.0364 18.0583 17.6095 18.2617 17.2346 18.5504C16.5428 19.0595 16.1677 19.8588 15.7224 20.5612C15.4982 20.9127 15.2518 21.2495 14.9847 21.5697C15.4245 21.3108 15.459 21.4147 15.9022 21.2587C16.0622 21.1743 16.2183 20.9984 16.3765 20.9192C17.0111 20.6014 17.6397 20.2739 18.2692 19.9469C18.5843 19.7833 18.9558 19.7651 19.2808 19.6588C19.5096 19.5839 19.7539 19.4066 19.9906 19.3392C20.4044 19.2264 20.8527 19.163 21.2639 19.0676C21.8282 18.9369 22.2599 18.7926 22.8529 18.7779C22.9356 18.7475 23.1691 18.8526 23.2251 18.8377C23.8533 18.6706 24.2605 19.0034 24.8042 19.2525C25.0141 19.3487 25.2654 19.4156 25.4972 19.5462C26.2887 19.9924 26.4989 20.7124 26.725 21.5301C26.6928 21.643 26.6403 21.8062 26.6314 21.924C26.6229 22.035 26.7602 22.2667 26.7323 22.3745C26.4853 23.3306 24.6243 24.2411 23.8896 24.8039C23.302 25.2541 22.8737 25.6402 22.368 26.0615C22.914 26.1094 23.4398 26.1036 23.9871 26.174C24.805 26.2546 25.6414 26.3459 26.4478 26.4811C27.2767 26.62 27.8034 26.7445 28.5013 27.2281C28.8512 27.4707 28.8797 27.5398 28.9699 27.9523C28.309 28.3688 27.2682 28.6212 26.4778 28.6565C26.165 28.6704 25.7489 28.5261 25.4381 28.4748C24.6409 28.3131 23.861 28.2341 23.0573 28.1392C21.946 28.0081 20.8759 28.1178 19.7673 28.2403C19.2611 28.2962 18.6411 28.7045 18.0979 28.6403C17.8884 28.6155 17.8925 28.2498 17.7741 28.1124C17.6231 27.893 17.4535 27.7029 17.3091 27.4753C17.7078 26.509 18.6256 26.5416 19.3503 25.9806C19.7504 25.6621 19.9975 25.1292 20.3843 24.8062C21.5044 23.8724 22.5579 22.8706 23.6979 21.9576C23.8612 21.8268 24.0421 21.4912 24.256 21.2952L24.0613 21.0481C23.831 20.9957 23.0501 20.972 23.0342 20.9323C22.9007 20.5996 22.7886 20.4386 22.1117 20.6317C21.2255 20.8845 20.1366 21.1316 19.2329 21.4131C18.4955 21.6427 17.4729 22.1764 16.8019 22.5928C16.2521 23.1806 15.6344 24.1769 15.4077 24.934C15.4026 25.387 15.2993 25.9697 15.3268 26.4086C15.3973 27.5369 14.9094 27.6175 13.8557 27.9703C13.3599 27.8163 13.2283 27.4653 12.9648 27.057C12.5011 26.3387 12.2306 25.7515 12.2296 24.8868C11.276 26.0426 10.3759 26.4272 9.14067 27.1419C7.59825 28.0343 6.11656 28.4308 4.35822 28.6649C3.97535 28.7159 3.14691 28.6819 2.80069 28.4754C2.23999 28.1408 1.6079 27.9455 1.09249 27.5544C0.796138 27.3294 0.593833 27.0859 0.552002 26.7131C0.390097 26.6177 0.210355 26.5226 0.126513 26.3491C0.123662 26.2407 0.109928 26.2773 0.16771 26.2033C0.611327 25.9814 1.81397 26.4737 2.32374 26.5826C2.56075 26.5154 2.81141 26.3991 3.05221 26.3495C4.0332 26.1474 5.00995 25.9258 5.99652 25.7526C6.11834 25.7312 6.31628 25.5776 6.45481 25.5437C6.98944 25.4131 7.54214 25.3497 8.00086 25.0219C8.023 25.006 8.20237 25.0513 8.24874 25.0371C8.5593 24.9418 8.86098 24.8075 9.16949 24.7042C9.29515 24.6616 9.71064 24.5507 9.77839 24.5122C10.3471 24.1887 12.1115 23.0665 12.4692 22.5842C12.4827 21.7623 12.7108 21.3565 13.0559 20.6465C13.0788 20.5994 13.1841 20.2618 13.2127 20.1774C13.7119 20.3676 13.7173 20.3385 14.1941 20.6503C14.3151 20.476 14.5972 20.1609 14.6602 19.9769C14.9719 19.0666 15.3327 18.6256 16.0324 17.96C15.4764 18.0875 14.8368 18.2207 14.2628 18.3078C13.8127 18.3762 13.0342 18.6765 12.6614 18.7219C11.8666 18.8186 10.5051 18.8585 9.72069 18.6943C9.46777 18.6413 8.94905 18.3643 8.83862 18.1417C8.75608 17.9754 8.70472 17.4586 8.7583 17.2601C8.83265 16.9847 9.46654 17.0324 9.71652 17.0468C10.4084 17.0865 11.3222 17.1899 12.0149 17.1314C12.8006 17.0685 13.5849 16.8209 14.3522 16.6955C14.9337 16.6005 15.41 16.5991 16.0077 16.4701C16.8 16.299 17.4347 16.221 18.1839 15.859L18.2286 15.9265C18.1883 16.0139 18.1623 16.0105 18.0716 16.0748C18.1399 16.0504 18.3772 16.0567 18.4861 16.0167C18.552 15.9924 18.7365 15.9252 18.7948 15.9132C18.8757 15.862 18.9307 15.7809 18.9908 15.7053Z" fill="#A33839"></path>
<path d="M17.1713 3.35699C17.392 3.33186 17.7768 3.31757 17.9825 3.35402C18.5534 3.45518 20.0574 4.66136 20.3481 5.08069C20.3562 5.27213 20.3963 5.41563 20.3965 5.63759C20.3976 6.65844 20.3339 7.87632 20.5537 8.87765C20.6343 8.94904 20.7677 9.03435 20.8598 9.09735C21.2 8.82229 22.2442 7.92315 22.639 7.87439L22.6757 7.92203L22.6613 8.02324L22.7065 8.07688C22.685 8.26294 22.4311 8.43329 22.319 8.57047L22.3465 8.59234C22.4519 8.55341 22.773 8.25789 22.8035 8.15662C22.9581 7.99523 23.586 7.37495 23.8169 7.56925C23.8725 7.90073 23.1748 8.48375 22.9727 8.74679C22.6391 9.1811 22.2953 9.58125 21.9058 9.96723C21.417 10.4517 20.9016 10.8782 20.3778 11.3211C20.0071 11.6385 20.112 12.3027 19.6073 12.6074C19.1293 12.896 18.8443 12.8751 18.331 12.7711C17.8619 12.9748 17.2717 13.3628 16.7974 13.5966C16.4368 13.7744 16.0708 13.9047 15.7138 14.0612C15.1616 14.3034 14.7758 14.3316 14.2112 14.0775C13.6207 13.8118 13.0784 13.5694 12.8306 12.9252C12.5635 12.2308 12.4247 11.1122 12.6045 10.3801C12.7036 10.013 12.9163 9.53779 12.9391 9.16383C12.9946 8.25311 12.3412 8.02027 13.5585 7.6951C14.4472 7.40446 15.0669 7.77156 15.8654 7.97938C16.7663 8.21383 16.9645 8.44187 17.7468 8.89962C17.8345 8.2174 17.7066 7.28618 17.696 6.58114C17.6891 6.12807 17.8294 5.19 17.7267 4.81376C17.5713 4.24463 17.3112 4.04243 17.1713 3.35699ZM15.1274 12.2818C15.6126 12.0662 16.1512 11.8066 16.6368 11.6103C16.8896 11.5504 16.9683 11.4009 17.1589 11.2345C17.3853 11.037 17.6363 10.8832 17.839 10.6626C17.5073 10.0356 17.2559 9.73495 16.6992 9.29877C16.1459 8.86529 15.6388 8.43963 14.8756 8.50995L14.7505 8.53926C14.6694 8.70627 15.0413 9.00939 15.0471 9.26925C15.0575 9.7338 14.9333 10.198 14.8645 10.6578C14.7118 11.4569 14.6588 11.6092 15.1274 12.2818Z" fill="#A33839"></path>
<path d="M24.1448 6.70341C24.8092 6.577 25.7606 7.08832 26.2574 7.50845C26.6608 7.8495 26.6237 8.00288 26.6505 8.47742C26.7071 8.51664 26.7854 8.57293 26.8142 8.61587C27.0138 8.91251 27.0203 9.23635 26.8544 9.54276C26.8282 9.59109 27.0467 9.8313 27.059 9.96675C27.0934 10.3703 27.0369 10.7755 27.0199 11.1792C27.0137 11.3264 27.0604 11.5447 27.0426 11.6725C26.9424 12.375 26.3402 12.8537 25.8011 13.2443C25.6077 13.3843 25.4257 13.4628 25.2236 13.6244C24.7398 13.9161 24.6529 13.9964 24.0788 14.0449C24.1094 13.9276 24.1762 13.7165 24.1204 13.6068C23.9026 13.5052 23.9337 13.4843 23.9065 13.2583C23.7982 13.1948 23.7669 13.3447 23.587 13.3265L23.5684 13.2875C23.6421 13.0464 24.0064 12.7582 24.1702 12.5598C24.2683 12.4411 24.3708 12.2991 24.465 12.1755C24.2967 11.4825 24.4024 10.7134 24.3742 10.0055C24.3435 9.23434 24.3491 8.41609 24.4016 7.64638C24.1664 7.51519 23.5382 7.09117 23.7064 6.76237C23.8097 6.6973 23.9999 6.7126 24.1448 6.70341Z" fill="#A33839"></path>
<g clip-path="url(#clip1_180_3102)">
<path d="M27.2101 44.6208C27.1103 44.4561 27.0292 44.3522 27.0879 44.1533C27.239 43.6419 27.6623 43.3807 28.13 43.1992C28.5887 43.0211 28.9122 42.9025 29.4024 43.0209C29.6814 43.3072 29.8498 43.6887 30.0213 44.0494C30.0755 44.1632 30.1801 44.4776 30.1892 44.5991C30.192 44.7995 30.1607 44.9935 30.1406 45.1966C30.1101 45.5033 30.1708 45.9546 30.0513 46.2347C29.8376 46.7348 29.4448 46.6997 29.0402 46.8801C28.7908 46.9913 28.5017 47.3644 28.2634 47.5185C27.9322 47.7289 27.5204 47.8973 27.1709 48.0886C26.9531 48.2078 26.6218 48.4349 26.4088 48.5137C25.9351 48.6889 25.1279 48.757 24.6894 48.9263L24.6737 48.9325C24.6967 49.1575 24.7748 49.427 24.8133 49.653C24.8733 50.0052 24.913 50.4708 25.0979 50.7858C25.1593 50.8906 25.4817 51.233 25.5903 51.3635C25.7172 51.5159 26.1432 52.0378 26.285 52.1376C27.8812 53.2601 30.074 53.2777 31.9524 53.4074C32.4182 53.4396 33.0008 53.2698 33.485 53.4016C33.8681 53.2093 34.1314 52.9984 34.5091 52.8175C34.6631 52.7439 34.8408 52.8233 34.9235 52.7601C34.6592 52.2783 35.0999 51.9854 35.0459 51.4925C35.033 51.3739 35.0266 51.2451 35.01 51.1268C34.9728 50.8604 35.0087 50.8726 34.817 50.694C34.792 50.6389 34.7822 50.3 34.7956 50.2569C34.8661 50.2331 34.8682 50.2488 34.9496 50.2733C34.9633 50.4111 34.9757 50.553 34.9932 50.69C35.0095 50.6138 35.0464 50.4624 35.0495 50.3916C35.0811 50.1369 35.1069 50.0328 35.2012 49.8007C35.1087 49.2827 34.9968 48.7547 34.9927 48.2288C34.9914 48.0546 34.863 47.2794 34.902 47.1686C34.9932 47.1313 35.1681 47.052 35.2573 47.0406C35.2916 47.0798 35.3265 47.1186 35.3616 47.1571L35.387 47.1567C35.4061 47.0152 35.3487 47.0684 35.4151 46.9267C35.5461 46.8161 35.8109 46.7619 35.9814 46.7177C36.0303 46.7558 36.1408 46.8428 36.1612 46.8982C36.4299 47.6256 36.617 48.4107 36.8523 49.1515C36.9774 49.5452 37.0071 50.0248 37.1683 50.3957C37.3739 50.8686 37.5597 51.3131 37.7429 51.7932C37.848 52.0057 38.0074 52.2051 38.1157 52.4135C38.1965 52.5691 38.258 52.7048 38.3479 52.8573C38.342 52.9927 38.3526 53.0931 38.3647 53.2265C38.4252 53.2843 38.4781 53.3417 38.535 53.4029C38.5174 53.8513 38.4329 53.8789 38.3464 54.2829C38.2748 54.3494 38.0935 54.5145 38.0446 54.5855C37.8131 54.9207 37.6656 55.2674 37.2554 55.4329C36.5612 55.7128 35.4402 55.7418 34.748 55.477C33.9787 55.6932 32.5087 55.4622 31.7184 55.3108C31.474 55.2639 31.1559 55.0993 30.8162 55.051C30.4925 55.0049 30.2176 54.9871 29.9 54.9526C29.6994 54.9408 29.2206 54.7105 29.0527 54.7121C28.3856 54.7185 27.7762 54.3157 27.1361 54.1207C26.8497 54.0335 26.473 53.8763 26.1864 53.7566C25.4927 53.4483 24.6601 53.2145 24.0982 52.6731C23.66 52.2507 23.1692 51.6306 22.8088 51.1392C22.6633 50.9408 22.4958 50.5121 22.3798 50.2846C22.2234 49.978 22.1898 49.5157 22.0341 49.1994C21.9363 48.9835 21.0183 49.1105 20.8043 49.0072C20.6877 48.951 20.6984 49.0075 20.6181 48.8738C20.6168 48.8045 20.6104 48.7794 20.6622 48.72C21.1189 48.196 21.5534 48.1342 22.1737 48.048L22.1811 48.0111C22.0604 47.8584 22.0861 47.6739 22.0602 47.4812C21.9583 46.7212 21.8211 45.9377 21.9053 45.1705C21.9231 45.0088 22.1415 44.9582 22.2611 44.8833C22.2746 44.701 22.3345 44.3445 22.3273 44.1577C22.3266 44.1387 22.2102 44.0637 22.2079 43.9541C22.2862 43.7423 22.3923 43.9091 22.4742 43.8782C22.8059 43.7528 22.8164 43.6549 23.2083 43.7923L23.6145 43.6753C24.069 43.8356 24.7797 43.6704 25.12 43.8833C25.6591 44.2206 24.7748 46.2357 24.8468 46.6029C24.9022 46.6336 24.9647 46.6337 25.0292 46.6405C25.0786 46.6802 25.0847 46.6869 25.1424 46.7111C25.249 46.6047 25.4934 46.4967 25.5163 46.3637C25.4596 46.3703 25.4347 46.3727 25.3778 46.3699C25.4082 46.2462 26.3027 45.5467 26.4361 45.4975L26.4682 45.5217C26.4655 45.5928 26.462 45.606 26.4812 45.6731L26.5326 45.6848C26.6719 45.6451 26.8809 45.4734 26.9966 45.3792C26.9798 44.985 26.9576 44.9262 27.2101 44.6208Z" fill="#A33839"></path>
<path d="M25.1055 31.8583C25.1341 31.8224 25.1645 31.7881 25.1968 31.7555C25.5827 31.3637 26.1443 31.1351 26.6954 31.1405C26.8333 31.1418 27.9427 31.3248 28.0402 31.3632C28.1954 31.4242 28.3317 31.528 28.4473 31.6469C28.7997 32.0095 28.9687 32.4514 28.9598 32.952C28.651 33.4808 28.3726 33.7775 28.2383 34.3928C28.1897 34.6154 28.0736 34.8767 28.0184 35.1194C27.8577 35.8266 27.9587 36.5916 27.6825 37.2669C27.6686 37.3004 27.6599 37.2855 27.6688 37.3335C27.7631 37.3296 28.3457 37.0969 28.5105 37.05C28.9112 36.9357 29.2679 36.8133 29.6858 36.7301C31.0096 36.4667 32.397 36.087 33.4223 37.2368C33.5936 37.4287 33.7786 38.3406 33.722 38.5247C33.5228 39.1706 32.0567 38.5067 31.6007 38.5196C30.4614 38.4346 29.4549 38.1369 28.3102 38.2706C28.2181 38.2814 28.0358 38.1466 27.9333 38.1925C27.763 38.2689 27.4176 38.5235 27.4004 38.7114C27.4882 38.8947 27.2823 39.2487 27.2355 39.4746C27.1339 39.8622 27.0867 40.7532 26.8221 41.0573C25.928 42.0852 25.7017 42.9928 24.1749 42.9913C23.9868 42.8446 23.8987 42.8069 24.015 42.5968C23.9266 42.476 23.7729 42.6297 23.6117 42.5462C23.3486 42.4098 23.2129 41.9881 23.1099 41.7264C23.356 41.4992 23.4605 41.4852 23.2839 41.1714C23.375 41.0142 23.6224 40.6822 23.6674 40.553C23.8355 40.0707 23.7108 39.9808 24.0388 39.5525C24.023 39.5008 23.9712 39.3408 23.9839 39.295C24.0566 39.0325 24.1644 38.7762 24.2183 38.5081C24.3109 38.0469 24.3436 37.5235 24.4634 37.0726C24.5288 36.8267 24.7526 36.4933 24.7899 36.2242C24.8099 36.0801 24.7572 35.9526 24.7137 35.8136C24.7733 35.7462 24.8774 35.66 24.9476 35.5983C24.9488 35.1982 25.1574 34.5785 25.273 34.1643C25.1536 34.2604 25.0291 34.3526 24.9332 34.4734L24.8868 34.4786L24.8831 34.4924C24.9257 34.3455 25.0655 34.0456 24.9918 33.9242C24.6818 33.8598 24.473 34.7229 23.8308 34.8577C23.6759 35.0573 23.5097 35.4034 23.3618 35.563C23.056 35.893 22.8131 36.1849 22.5343 36.5381L22.4761 36.5566L22.4152 36.4782C22.3313 36.4977 22.2499 36.5765 22.2255 36.659C22.2499 36.718 22.2561 36.7232 22.3076 36.7613L22.3085 36.8414C22.1025 37.3031 21.7194 37.7668 21.464 38.2155C21.277 38.5111 21.2589 38.9566 21.1155 39.2503C20.9343 39.621 20.628 39.9972 20.3983 40.3475C20.1809 40.6793 20.0436 41.1416 19.6665 41.2878C19.6383 41.299 19.6098 41.3095 19.5811 41.3193C19.0081 41.1506 18.6662 41.1527 18.1864 40.7421C18.0368 40.6142 17.941 40.5607 17.7654 40.3811C17.5348 40.1453 17.4256 39.8543 17.2172 39.6107C17.2145 39.6075 17.1573 39.6256 17.1463 39.6342C16.7985 39.9051 16.5223 40.3655 16.2245 40.7023C15.9627 40.8051 15.5083 40.8665 15.2257 40.866C14.621 41.3029 14.3668 41.5688 13.5579 41.4417C13.1998 41.3854 11.664 40.826 11.6484 40.4499C11.7535 40.1813 12.3472 39.7834 12.6191 39.6536C12.8321 39.5518 13.0921 39.5846 13.1702 39.5334C13.4353 39.36 13.6906 39.0601 13.9607 38.8559C14.4409 38.493 15.0296 38.2764 15.5873 38.0592C15.7217 38.0068 16.0376 37.9651 16.1909 37.9179C16.3503 37.8687 16.5142 37.8064 16.6725 37.7754C16.3597 37.208 16.2836 36.7947 16.3621 36.1266C16.1993 35.9014 16.0335 35.6405 15.8667 35.4053L15.88 35.3831C15.994 35.1891 15.8997 35.0137 16.0037 34.8342C16.1618 34.5614 17.1468 34.2215 17.4078 34.1502C17.4328 34.1434 17.4577 34.1367 17.4828 34.1301C17.9137 34.2727 18.7265 34.8962 18.9316 35.3379C19.1785 35.8323 19.0762 36.3909 19.1197 36.9163C19.145 37.221 19.2778 37.5727 19.319 37.8841C19.3638 38.2229 19.3245 38.6942 19.5321 38.9782C19.4943 39.0904 19.4737 39.1322 19.4862 39.2482L19.5157 39.2719C19.5709 39.2144 19.5824 39.1868 19.6181 39.1184C19.7901 38.8707 19.9899 38.613 20.2172 38.4023C20.5587 38.0856 20.6967 37.349 21.1839 37.2258C21.3322 37.1884 21.2883 37.4664 21.6237 37.1665C22.1293 36.7146 22.4345 36.172 22.8219 35.6322L23.5831 34.5782C23.6763 34.4475 23.8034 34.3202 23.8929 34.1933C23.9487 34.1143 23.9989 33.8425 24.0715 33.7683C24.3101 33.5243 24.5276 33.2379 24.7645 32.9971C24.9569 32.8015 25.1913 32.6488 25.3494 32.4193C25.3195 32.2865 25.1745 32.1228 25.1091 31.8725L25.1055 31.8583Z" fill="#A33839"></path>
<path d="M16.8128 43.2949C16.5891 42.6312 17.2754 42.6748 17.7426 42.4616C17.9086 42.3858 18.1177 42.3799 18.3002 42.3872C18.5845 42.6684 18.8889 42.4031 19.0788 42.6119C19.9697 43.5913 19.0262 44.331 18.5459 45.1496C18.3006 45.5675 18.3664 45.8461 18.0456 46.2576C17.6196 46.8041 17.1706 47.2369 16.7619 47.7618C16.7019 47.838 16.5749 47.9907 16.5278 48.0629C16.1955 48.3126 16.0209 48.6901 15.7883 49.0187C15.6225 49.2226 15.3464 49.3701 15.1308 49.5102C13.6067 50.5003 11.7079 51.1022 9.97543 51.6251C9.03986 51.9074 6.54233 52.6883 5.73425 52.0743C5.56706 52.0961 5.12144 52.2017 5.08398 51.9731C5.16526 51.7707 5.50839 51.6075 5.71054 51.5401C6.56444 51.2552 7.45487 51.047 8.26961 50.6547C9.97965 49.8314 11.7512 48.9669 12.9416 47.4317C13.1225 47.2494 13.3052 47.0641 13.485 46.8811C14.29 46.0616 15.0143 45.1727 15.7109 44.2612C15.952 43.9458 16.494 43.5467 16.8128 43.2949Z" fill="#A33839"></path>
<path d="M16.7949 47.8598C17.0794 47.703 17.5596 47.669 17.8855 47.7101C18.2032 48.0451 18.5256 48.7714 18.4583 49.218C18.3105 50.144 18.4313 51.051 18.3846 51.9814C18.3745 52.1823 18.4119 52.425 18.3932 52.6204C18.3269 53.3132 18.199 54.4836 17.4066 54.7311C17.1597 54.5884 16.893 54.3491 16.6782 54.1582C16.882 52.7036 16.4082 51.0959 16.457 49.6383C16.4625 49.473 16.4006 49.3826 16.4261 49.1455C16.5225 49.0101 16.6631 48.8306 16.7161 48.6796L16.7062 48.63C16.3899 48.5337 16.4844 48.3488 16.5559 48.0866L16.7949 47.8598Z" fill="#A33839"></path>
<path d="M22.3076 36.8415L22.3067 36.7613C22.2552 36.7232 22.249 36.718 22.2246 36.6591C22.249 36.5766 22.3304 36.4977 22.4143 36.4782L22.4752 36.5566L22.5334 36.5381C22.5079 36.6239 22.374 36.7808 22.3076 36.8415Z" fill="#A33839"></path>
<path d="M19.532 38.9779L19.6182 39.0386L19.618 39.1181C19.5823 39.1865 19.5708 39.2141 19.5156 39.2716L19.4861 39.2479C19.4736 39.1319 19.4941 39.0901 19.532 38.9779Z" fill="#A33839"></path>
</g>
<defs>
<clipPath id="clip0_180_3102">
<rect width="30.5509" height="61.1019" fill="white" transform="translate(36.3828 62.1588) rotate(-180)"></rect>
</clipPath>
<clipPath id="clip1_180_3102">
<rect width="36.7423" height="26.4923" fill="white" transform="translate(4.25781 30.9076)"></rect>
</clipPath>
</defs>
</svg>